<mxfile host="app.diagrams.net" modified="2021-01-18T15:30:29.300Z" agent="5.0 (Windows NT 10.0; Win64; x64) AppleWebKit/537.36 (KHTML, like Gecko) Chrome/86.0.4240.75 Safari/537.36" etag="vpYAOAv9bE7n0yBXjywI" version="14.1.8" type="github">
  <diagram id="iEEBnmOScOF1PKZK2I6k" name="Page-1">
    <mxGraphModel dx="868" dy="450" grid="1" gridSize="10" guides="1" tooltips="1" connect="1" arrows="1" fold="1" page="1" pageScale="1" pageWidth="827" pageHeight="1169" math="0" shadow="0">
      <root>
        <mxCell id="0" />
        <mxCell id="1" parent="0" />
        <mxCell id="JsRsptxxAnK-JN6UVR25-40" style="edgeStyle=none;rounded=0;orthogonalLoop=1;jettySize=auto;html=1;exitX=1;exitY=0.5;exitDx=0;exitDy=0;entryX=0;entryY=0.5;entryDx=0;entryDy=0;" edge="1" parent="1" source="JsRsptxxAnK-JN6UVR25-15" target="JsRsptxxAnK-JN6UVR25-18">
          <mxGeometry relative="1" as="geometry" />
        </mxCell>
        <mxCell id="JsRsptxxAnK-JN6UVR25-15" value="key1" style="rounded=0;whiteSpace=wrap;html=1;fillColor=#ffe6cc;strokeColor=#d79b00;" vertex="1" parent="1">
          <mxGeometry x="178" y="220" width="52" height="20" as="geometry" />
        </mxCell>
        <mxCell id="JsRsptxxAnK-JN6UVR25-45" style="edgeStyle=none;rounded=0;orthogonalLoop=1;jettySize=auto;html=1;exitX=0;exitY=0.5;exitDx=0;exitDy=0;entryX=1;entryY=0.75;entryDx=0;entryDy=0;" edge="1" parent="1" source="JsRsptxxAnK-JN6UVR25-17" target="JsRsptxxAnK-JN6UVR25-34">
          <mxGeometry relative="1" as="geometry">
            <mxPoint x="160" y="250" as="targetPoint" />
          </mxGeometry>
        </mxCell>
        <mxCell id="JsRsptxxAnK-JN6UVR25-17" value="value1" style="rounded=0;whiteSpace=wrap;html=1;fillColor=#ffe6cc;strokeColor=#d79b00;" vertex="1" parent="1">
          <mxGeometry x="178" y="240" width="52" height="20" as="geometry" />
        </mxCell>
        <mxCell id="JsRsptxxAnK-JN6UVR25-41" style="edgeStyle=none;rounded=0;orthogonalLoop=1;jettySize=auto;html=1;exitX=1;exitY=0.5;exitDx=0;exitDy=0;entryX=0;entryY=0.5;entryDx=0;entryDy=0;" edge="1" parent="1" source="JsRsptxxAnK-JN6UVR25-18" target="JsRsptxxAnK-JN6UVR25-20">
          <mxGeometry relative="1" as="geometry" />
        </mxCell>
        <mxCell id="JsRsptxxAnK-JN6UVR25-18" value="key4" style="rounded=0;whiteSpace=wrap;html=1;fillColor=#ffe6cc;strokeColor=#d79b00;" vertex="1" parent="1">
          <mxGeometry x="270" y="220" width="52" height="20" as="geometry" />
        </mxCell>
        <mxCell id="JsRsptxxAnK-JN6UVR25-46" style="edgeStyle=none;rounded=0;orthogonalLoop=1;jettySize=auto;html=1;exitX=0;exitY=0.5;exitDx=0;exitDy=0;entryX=1;entryY=0.5;entryDx=0;entryDy=0;" edge="1" parent="1" source="JsRsptxxAnK-JN6UVR25-19" target="JsRsptxxAnK-JN6UVR25-17">
          <mxGeometry relative="1" as="geometry" />
        </mxCell>
        <mxCell id="JsRsptxxAnK-JN6UVR25-19" value="value4" style="rounded=0;whiteSpace=wrap;html=1;fillColor=#ffe6cc;strokeColor=#d79b00;" vertex="1" parent="1">
          <mxGeometry x="270" y="240" width="52" height="20" as="geometry" />
        </mxCell>
        <mxCell id="JsRsptxxAnK-JN6UVR25-42" style="edgeStyle=none;rounded=0;orthogonalLoop=1;jettySize=auto;html=1;exitX=1;exitY=0.5;exitDx=0;exitDy=0;entryX=0;entryY=0.5;entryDx=0;entryDy=0;" edge="1" parent="1" source="JsRsptxxAnK-JN6UVR25-20" target="JsRsptxxAnK-JN6UVR25-22">
          <mxGeometry relative="1" as="geometry" />
        </mxCell>
        <mxCell id="JsRsptxxAnK-JN6UVR25-20" value="key3" style="rounded=0;whiteSpace=wrap;html=1;fillColor=#ffe6cc;strokeColor=#d79b00;" vertex="1" parent="1">
          <mxGeometry x="370" y="220" width="52" height="20" as="geometry" />
        </mxCell>
        <mxCell id="JsRsptxxAnK-JN6UVR25-47" style="edgeStyle=none;rounded=0;orthogonalLoop=1;jettySize=auto;html=1;exitX=0;exitY=0.5;exitDx=0;exitDy=0;entryX=1;entryY=0.5;entryDx=0;entryDy=0;" edge="1" parent="1" source="JsRsptxxAnK-JN6UVR25-21" target="JsRsptxxAnK-JN6UVR25-19">
          <mxGeometry relative="1" as="geometry" />
        </mxCell>
        <mxCell id="JsRsptxxAnK-JN6UVR25-21" value="value3" style="rounded=0;whiteSpace=wrap;html=1;fillColor=#ffe6cc;strokeColor=#d79b00;" vertex="1" parent="1">
          <mxGeometry x="370" y="240" width="52" height="20" as="geometry" />
        </mxCell>
        <mxCell id="JsRsptxxAnK-JN6UVR25-44" style="edgeStyle=none;rounded=0;orthogonalLoop=1;jettySize=auto;html=1;exitX=1;exitY=0.5;exitDx=0;exitDy=0;entryX=0;entryY=0.25;entryDx=0;entryDy=0;" edge="1" parent="1" source="JsRsptxxAnK-JN6UVR25-22" target="JsRsptxxAnK-JN6UVR25-38">
          <mxGeometry relative="1" as="geometry" />
        </mxCell>
        <mxCell id="JsRsptxxAnK-JN6UVR25-22" value="key2" style="rounded=0;whiteSpace=wrap;html=1;fillColor=#ffe6cc;strokeColor=#d79b00;" vertex="1" parent="1">
          <mxGeometry x="460" y="220" width="52" height="20" as="geometry" />
        </mxCell>
        <mxCell id="JsRsptxxAnK-JN6UVR25-50" style="edgeStyle=none;rounded=0;orthogonalLoop=1;jettySize=auto;html=1;exitX=0;exitY=0.5;exitDx=0;exitDy=0;entryX=1;entryY=0.5;entryDx=0;entryDy=0;" edge="1" parent="1" source="JsRsptxxAnK-JN6UVR25-23" target="JsRsptxxAnK-JN6UVR25-21">
          <mxGeometry relative="1" as="geometry" />
        </mxCell>
        <mxCell id="JsRsptxxAnK-JN6UVR25-23" value="value2" style="rounded=0;whiteSpace=wrap;html=1;fillColor=#ffe6cc;strokeColor=#d79b00;" vertex="1" parent="1">
          <mxGeometry x="460" y="240" width="52" height="20" as="geometry" />
        </mxCell>
        <mxCell id="JsRsptxxAnK-JN6UVR25-28" style="rounded=0;orthogonalLoop=1;jettySize=auto;html=1;exitX=0.5;exitY=1;exitDx=0;exitDy=0;entryX=0.5;entryY=0;entryDx=0;entryDy=0;" edge="1" parent="1" source="JsRsptxxAnK-JN6UVR25-24" target="JsRsptxxAnK-JN6UVR25-22">
          <mxGeometry relative="1" as="geometry" />
        </mxCell>
        <mxCell id="JsRsptxxAnK-JN6UVR25-24" value="key2" style="rounded=0;whiteSpace=wrap;html=1;fillColor=#dae8fc;strokeColor=#6c8ebf;" vertex="1" parent="1">
          <mxGeometry x="202" y="110" width="58" height="40" as="geometry" />
        </mxCell>
        <mxCell id="JsRsptxxAnK-JN6UVR25-29" style="edgeStyle=none;rounded=0;orthogonalLoop=1;jettySize=auto;html=1;exitX=0.5;exitY=1;exitDx=0;exitDy=0;entryX=0.5;entryY=0;entryDx=0;entryDy=0;" edge="1" parent="1" source="JsRsptxxAnK-JN6UVR25-25" target="JsRsptxxAnK-JN6UVR25-20">
          <mxGeometry relative="1" as="geometry" />
        </mxCell>
        <mxCell id="JsRsptxxAnK-JN6UVR25-25" value="key3" style="rounded=0;whiteSpace=wrap;html=1;fillColor=#dae8fc;strokeColor=#6c8ebf;" vertex="1" parent="1">
          <mxGeometry x="260" y="110" width="58" height="40" as="geometry" />
        </mxCell>
        <mxCell id="JsRsptxxAnK-JN6UVR25-30" style="edgeStyle=none;rounded=0;orthogonalLoop=1;jettySize=auto;html=1;exitX=0.5;exitY=1;exitDx=0;exitDy=0;entryX=0.5;entryY=0;entryDx=0;entryDy=0;" edge="1" parent="1" source="JsRsptxxAnK-JN6UVR25-26" target="JsRsptxxAnK-JN6UVR25-15">
          <mxGeometry relative="1" as="geometry" />
        </mxCell>
        <mxCell id="JsRsptxxAnK-JN6UVR25-26" value="key1" style="rounded=0;whiteSpace=wrap;html=1;fillColor=#dae8fc;strokeColor=#6c8ebf;" vertex="1" parent="1">
          <mxGeometry x="318" y="110" width="58" height="40" as="geometry" />
        </mxCell>
        <mxCell id="JsRsptxxAnK-JN6UVR25-31" style="edgeStyle=none;rounded=0;orthogonalLoop=1;jettySize=auto;html=1;exitX=0.5;exitY=1;exitDx=0;exitDy=0;entryX=0.5;entryY=0;entryDx=0;entryDy=0;" edge="1" parent="1" source="JsRsptxxAnK-JN6UVR25-27" target="JsRsptxxAnK-JN6UVR25-18">
          <mxGeometry relative="1" as="geometry" />
        </mxCell>
        <mxCell id="JsRsptxxAnK-JN6UVR25-27" value="key4" style="rounded=0;whiteSpace=wrap;html=1;fillColor=#dae8fc;strokeColor=#6c8ebf;" vertex="1" parent="1">
          <mxGeometry x="376" y="110" width="58" height="40" as="geometry" />
        </mxCell>
        <mxCell id="JsRsptxxAnK-JN6UVR25-39" style="edgeStyle=none;rounded=0;orthogonalLoop=1;jettySize=auto;html=1;exitX=1;exitY=0.25;exitDx=0;exitDy=0;entryX=0;entryY=0.5;entryDx=0;entryDy=0;" edge="1" parent="1" source="JsRsptxxAnK-JN6UVR25-34" target="JsRsptxxAnK-JN6UVR25-15">
          <mxGeometry relative="1" as="geometry" />
        </mxCell>
        <mxCell id="JsRsptxxAnK-JN6UVR25-34" value="head" style="rounded=0;whiteSpace=wrap;html=1;fillColor=#ffe6cc;strokeColor=#d79b00;" vertex="1" parent="1">
          <mxGeometry x="90" y="220" width="60" height="40" as="geometry" />
        </mxCell>
        <mxCell id="JsRsptxxAnK-JN6UVR25-51" style="edgeStyle=none;rounded=0;orthogonalLoop=1;jettySize=auto;html=1;exitX=0;exitY=0.75;exitDx=0;exitDy=0;entryX=1;entryY=0.5;entryDx=0;entryDy=0;" edge="1" parent="1" source="JsRsptxxAnK-JN6UVR25-38" target="JsRsptxxAnK-JN6UVR25-23">
          <mxGeometry relative="1" as="geometry" />
        </mxCell>
        <mxCell id="JsRsptxxAnK-JN6UVR25-38" value="tail" style="rounded=0;whiteSpace=wrap;html=1;fillColor=#ffe6cc;strokeColor=#d79b00;" vertex="1" parent="1">
          <mxGeometry x="550" y="220" width="60" height="40" as="geometry" />
        </mxCell>
        <mxCell id="JsRsptxxAnK-JN6UVR25-54" value="哈希表" style="text;html=1;strokeColor=none;fillColor=none;align=center;verticalAlign=middle;whiteSpace=wrap;rounded=0;" vertex="1" parent="1">
          <mxGeometry x="290" y="60" width="40" height="20" as="geometry" />
        </mxCell>
        <mxCell id="JsRsptxxAnK-JN6UVR25-55" value="双向链表" style="text;html=1;strokeColor=none;fillColor=none;align=center;verticalAlign=middle;whiteSpace=wrap;rounded=0;" vertex="1" parent="1">
          <mxGeometry x="275" y="300" width="70" height="20" as="geometry" />
        </mxCell>
      </root>
    </mxGraphModel>
  </diagram>
</mxfile>
